<svg xmlns="http://www.w3.org/2000/svg" width="1343" height="993" viewBox="0 0 1343 993"><defs><style type="text/css"/></defs><g transform="translate(1167.9529385833976 374.15997221880906) scale(1)"><g class="relationship"><g transform="translate(-497.20592820597636 67.85782154481547) rotate(-90)" stroke-width="5" stroke="#666666"><path d="M 99 0 L 224.15564314587624 0"/><polygon points="-24.8621506177483,0 -27.62461179749811,9.20820393249937 0,0 -27.62461179749811,-9.20820393249937" fill="#666666" transform="translate(249.01779376362452 0) rotate(0)" stroke="none"/></g><g transform="translate(-497.20592820597636 -93.72000002812266) rotate(90) translate(0 -13)"><g transform="translate(0 0)"><g transform="translate(-43.6640625 0)" fill="#ffffff" stroke="#808080" stroke-width="0"><rect x="0" y="0" width="87.328125" height="26" rx="5" ry="5" stroke="none"/><text xml:space="preserve" x="5" y="17.45703125" stroke="none" text-anchor="left" font-family="sans-serif" font-size="16" font-weight="normal" fill="#666666">CONTENT</text></g></g></g></g><g class="relationship"><g transform="translate(-497.20592820597636 67.85782154481547) rotate(132.1080823765851)" stroke-width="5" stroke="#666666"><path d="M 98.81823746431654 -5.996327579940013 L 163.58766406132895 -9.926560591643042 A 40 40 0 0 1 166.01042267948654 -10 L 288.71648879929813 -10 L 411.42255491910964 -10 A 40 40 0 0 1 413.84531353726726 -9.926560591643042 L 453.79823605732764 -7.502202321817051 L 453.79823605732764 -7.502202321817051"/><polygon points="-24.8621506177483,0 -27.62461179749811,9.20820393249937 0,0 -27.62461179749811,-9.20820393249937" fill="#666666" transform="translate(577.4329775985963 0) rotate(3.4724714856413534) translate(-99 0)" stroke="none"/></g><g transform="translate(-683.3805519394655 288.75648696017964) rotate(312.10808237658506) translate(0 5)"><g transform="translate(0 0)"><g transform="translate(-28.55078125 0)" fill="#ffffff" stroke="#808080" stroke-width="0"><rect x="0" y="0" width="57.1015625" height="26" rx="5" ry="5" stroke="none"/><text xml:space="preserve" x="5" y="17.45703125" stroke="none" text-anchor="left" font-family="sans-serif" font-size="16" font-weight="normal" fill="#666666">FROM</text></g></g></g></g><g class="relationship"><g transform="translate(-497.20592820597636 67.85782154481547) rotate(132.1080823765851)" stroke-width="5" stroke="#666666"><path d="M 98.81823746431654 5.996327579940013 L 163.58766406132895 9.926560591643042 A 40 40 0 0 0 166.01042267948654 10 L 288.71648879929813 10 L 411.42255491910964 10 A 40 40 0 0 0 413.84531353726726 9.926560591643042 L 453.79823605732764 7.502202321817051 L 453.79823605732764 7.502202321817051"/><polygon points="-24.8621506177483,0 -27.62461179749811,9.20820393249937 0,0 -27.62461179749811,-9.20820393249937" fill="#666666" transform="translate(577.4329775985963 0) rotate(-3.4724714856413534) translate(-99 0)" stroke="none"/></g><g transform="translate(-698.218177149016 275.34586139159) rotate(312.10808237658506) translate(0 -31)"><g transform="translate(0 0)"><g transform="translate(-15.96875 0)" fill="#ffffff" stroke="#808080" stroke-width="0"><rect x="0" y="0" width="31.9375" height="26" rx="5" ry="5" stroke="none"/><text xml:space="preserve" x="5" y="17.45703125" stroke="none" text-anchor="left" font-family="sans-serif" font-size="16" font-weight="normal" fill="#666666">TO</text></g></g></g></g><g class="relationship"><g transform="translate(-497.20592820597636 67.85782154481547) rotate(177.20693190768512)" stroke-width="5" stroke="#666666"><path d="M 99 0 L 453.5708269808482 0"/><polygon points="-24.8621506177483,0 -27.62461179749811,9.20820393249937 0,0 -27.62461179749811,-9.20820393249937" fill="#666666" transform="translate(478.4329775985965 0) rotate(0)" stroke="none"/></g><g transform="translate(-773.1631257047688 81.32091391570184) rotate(357.2069319076851) translate(0 -13)"><g transform="translate(0 0)"><g transform="translate(-61.453125 0)" fill="#ffffff" stroke="#808080" stroke-width="0"><rect x="0" y="0" width="122.90625" height="26" rx="5" ry="5" stroke="none"/><text xml:space="preserve" x="5" y="17.45703125" stroke="none" text-anchor="left" font-family="sans-serif" font-size="16" font-weight="normal" fill="#666666">FORWARD_OF</text></g></g></g></g><g class="relationship"><g transform="translate(-497.20592820597636 67.85782154481547) rotate(-146.99770784518347)" stroke-width="5" stroke="#666666"><path d="M 99 0 L 453.5708269808481 0"/><polygon points="-24.8621506177483,0 -27.62461179749811,9.20820393249937 0,0 -27.62461179749811,-9.20820393249937" fill="#666666" transform="translate(478.4329775985964 0) rotate(0)" stroke="none"/></g><g transform="translate(-728.9123527848014 -82.62726913353649) rotate(33.002292154816516) translate(0 -13)"><g transform="translate(0 0)"><g transform="translate(-60.55859375 0)" fill="#ffffff" stroke="#808080" stroke-width="0"><rect x="0" y="0" width="121.1171875" height="26" rx="5" ry="5" stroke="none"/><text xml:space="preserve" x="5" y="17.45703125" stroke="none" text-anchor="left" font-family="sans-serif" font-size="16" font-weight="normal" fill="#666666">WATCH_TERM</text></g></g></g></g><g class="relationship"><g transform="translate(-497.20592820597636 67.85782154481547) rotate(0)" stroke-width="5" stroke="#666666"><path d="M 99 0 L 453.5708269808482 0"/><polygon points="-24.8621506177483,0 -27.62461179749811,9.20820393249937 0,0 -27.62461179749811,-9.20820393249937" fill="#666666" transform="translate(478.4329775985965 0) rotate(0)" stroke="none"/></g><g transform="translate(-220.92051471555226 67.85782154481547) rotate(0) translate(0 -13)"><g transform="translate(0 0)"><g transform="translate(-74.34375 0)" fill="#ffffff" stroke="#808080" stroke-width="0"><rect x="0" y="0" width="148.6875" height="26" rx="5" ry="5" stroke="none"/><text xml:space="preserve" x="5" y="17.45703125" stroke="none" text-anchor="left" font-family="sans-serif" font-size="16" font-weight="normal" fill="#666666">SUBJECT_ENTITY</text></g></g></g></g><g class="relationship"><g transform="translate(-497.20592820597636 -280.15997221880906) rotate(0)" stroke-width="5" stroke="#666666"><path d="M 99 0 L 314.7018043494918 0"/><polygon points="-24.8621506177483,0 -27.62461179749811,9.20820393249937 0,0 -27.62461179749811,-9.20820393249937" fill="#666666" transform="translate(339.56395496724014 0) rotate(0)" stroke="none"/></g><g transform="translate(-290.35502603123047 -280.15997221880906) rotate(0) translate(0 -13)"><g transform="translate(0 0)"><g transform="translate(-76.55859375 0)" fill="#ffffff" stroke="#808080" stroke-width="0"><rect x="0" y="0" width="153.1171875" height="26" rx="5" ry="5" stroke="none"/><text xml:space="preserve" x="5" y="17.45703125" stroke="none" text-anchor="left" font-family="sans-serif" font-size="16" font-weight="normal" fill="#666666">CONTENT_ENTITY</text></g></g></g></g><g class="relationship"><g transform="translate(-497.20592820597636 67.85782154481547) rotate(52.15551579065839)" stroke-width="5" stroke="#666666"><path d="M 99 0 L 453.5708269808481 0"/><polygon points="-24.8621506177483,0 -27.62461179749811,9.20820393249937 0,0 -27.62461179749811,-9.20820393249937" fill="#666666" transform="translate(478.4329775985964 0) rotate(0)" stroke="none"/></g><g transform="translate(-327.69920683438295 286.0345873046635) rotate(52.15551579065839) translate(0 -13)"><g transform="translate(0 0)"><g transform="translate(-86.35546875 0)" fill="#ffffff" stroke="#808080" stroke-width="0"><rect x="0" y="0" width="172.7109375" height="26" rx="5" ry="5" stroke="none"/><text xml:space="preserve" x="5" y="17.45703125" stroke="none" text-anchor="left" font-family="sans-serif" font-size="16" font-weight="normal" fill="#666666">HAS_EMAIL_DOMAIN</text></g></g></g></g><g class="node"><g fill="#fb9e00" stroke="#ffffff" stroke-width="4"><circle cx="-497.20592820597636" cy="67.85782154481547" r="92"/></g><g transform="translate(-497.20592820597636 67.85782154481547)"><g transform="scale(0.5078129921874999) translate(0 0)"><g transform="translate(0 0)"><g font-family="sans-serif" font-size="50" font-weight="normal" fill="#ffffff" text-anchor="middle"><text xml:space="preserve" x="0" y="13.92822265625" stroke="none">EmailMessage</text></g></g></g></g></g><g class="node"><g fill="#b0bc00" stroke="#ffffff" stroke-width="4"><circle cx="-497.20592820597636" cy="-280.15997221880906" r="92"/></g><g transform="translate(-497.20592820597636 -280.15997221880906)"><g transform="scale(0.540162025554929) translate(0 -56)"><g transform="translate(0 0)"><g transform="translate(-121.4921875 0)"><g fill="#ffffff" stroke="#000000" stroke-width="4"><rect x="0" y="0" width="242.984375" height="54" rx="27" ry="27"/><text xml:space="preserve" x="27" y="38.142578125" stroke="none" font-family="sans-serif" font-size="40" font-weight="normal" fill="#000000">ToExternal</text></g></g><g transform="translate(-147.05859375 62)"><g fill="#ffffff" stroke="#000000" stroke-width="4"><rect x="0" y="0" width="294.1171875" height="54" rx="27" ry="27"/><text xml:space="preserve" x="27" y="38.142578125" stroke="none" font-family="sans-serif" font-size="40" font-weight="normal" fill="#000000">EmailContent</text></g></g></g></g></g></g><g class="node"><g fill="#e27300" stroke="#ffffff" stroke-width="4"><circle cx="-884.3928008825051" cy="496.24452680695424" r="92"/></g><g transform="translate(-884.3928008825051 496.24452680695424)"><g transform="scale(0.5297023081633235) translate(0 -56)"><g transform="translate(0 0)"><g transform="translate(-93.708984375 0)"><g fill="#ffffff" stroke="#000000" stroke-width="4"><rect x="0" y="0" width="187.41796875" height="54" rx="27" ry="27"/><text xml:space="preserve" x="27" y="38.142578125" stroke="none" font-family="sans-serif" font-size="40" font-weight="normal" fill="#000000">Internal</text></g></g><g transform="translate(-150.37890625 62)"><g fill="#ffffff" stroke="#000000" stroke-width="4"><rect x="0" y="0" width="300.7578125" height="54" rx="27" ry="27"/><text xml:space="preserve" x="27" y="38.142578125" stroke="none" font-family="sans-serif" font-size="40" font-weight="normal" fill="#000000">EmailAddress</text></g></g></g></g></g></g><g class="node"><g fill="#fb9e00" stroke="#ffffff" stroke-width="4"><circle cx="-1073.9529385833976" cy="95.99551226541277" r="92"/></g><g transform="translate(-1073.9529385833976 95.99551226541277)"><g transform="scale(0.5078129921874999) translate(0 0)"><g transform="translate(0 0)"><g font-family="sans-serif" font-size="50" font-weight="normal" fill="#ffffff" text-anchor="middle"><text xml:space="preserve" x="0" y="13.92822265625" stroke="none">EmailMessage</text></g></g></g></g></g><g class="node"><g fill="#d33115" stroke="#ffffff" stroke-width="4"><circle cx="-981.4693896134779" cy="-246.65409168583847" r="92"/></g><g transform="translate(-981.4693896134779 -246.65409168583847)"><g transform="scale(0.65625034375) translate(0 0)"><g transform="translate(0 0)"><g font-family="sans-serif" font-size="50" font-weight="normal" fill="#ffffff" text-anchor="middle"><text xml:space="preserve" x="0" y="13.92822265625" stroke="none">WatchTerm</text></g></g></g></g></g><g class="node"><g fill="#009ce0" stroke="#ffffff" stroke-width="4"><circle cx="80.22704939262013" cy="67.85782154481547" r="92"/></g><g transform="translate(80.22704939262013 67.85782154481547)"><g transform="scale(0.55859419140625) translate(0 0)"><g transform="translate(0 0)"><g font-family="sans-serif" font-size="50" font-weight="normal" fill="#ffffff" text-anchor="middle"><text xml:space="preserve" x="0" y="13.92822265625" stroke="none">PopularEntity</text></g></g></g></g></g><g class="node"><g fill="#009ce0" stroke="#ffffff" stroke-width="4"><circle cx="-58.64197323873623" cy="-280.15997221880906" r="92"/></g><g transform="translate(-58.64197323873623 -280.15997221880906)"><g transform="scale(0.5546879453125) translate(0 0)"><g transform="translate(0 0)"><g font-family="sans-serif" font-size="50" font-weight="normal" fill="#ffffff" text-anchor="middle"><text xml:space="preserve" x="0" y="13.92822265625" stroke="none">ContentEntity</text></g></g></g></g></g><g class="node"><g fill="#0c797d" stroke="#ffffff" stroke-width="4"><circle cx="-142.9390503131728" cy="523.8444692072953" r="92"/></g><g transform="translate(-142.9390503131728 523.8444692072953)"><g transform="scale(0.494195312551796) translate(0 -56)"><g transform="translate(0 0)"><g transform="translate(-145.92578125 0)"><g fill="#ffffff" stroke="#000000" stroke-width="4"><rect x="0" y="0" width="291.8515625" height="54" rx="27" ry="27"/><text xml:space="preserve" x="27" y="38.142578125" stroke="none" font-family="sans-serif" font-size="40" font-weight="normal" fill="#000000">EmailDomain</text></g></g><g transform="translate(-162.625 62)"><g fill="#ffffff" stroke="#000000" stroke-width="4"><rect x="0" y="0" width="325.25" height="54" rx="27" ry="27"/><text xml:space="preserve" x="27" y="38.142578125" stroke="none" font-family="sans-serif" font-size="40" font-weight="normal" fill="#000000">InternalDomain</text></g></g></g></g></g></g></g></svg>