<?xml version="1.0" standalone="no"?>
<svg xmlns:xlink="http://www.w3.org/1999/xlink" xmlns="http://www.w3.org/2000/svg" width="1613" height="766"><defs><marker id="modelerCanvasArrow" viewBox="0 -5 10 10" refX="5" refY="0" markerWidth="4" markerHeight="4" orient="auto"><path d="M0,-5L10,0L0,5" class="arrowHead"/></marker></defs><g transform="translate(30,-108) scale(1)"><g id="relationshiptype_Rel11" class="relationshipType"><path class="relationshipLine arrow" d="M306.7157287525381,503.2842712474619C295.2915010202709,517.3639540148893,283.86727328800373,531.4436367823167,273.15916373098105,525.7514627330917C262.45105417395837,520.0592886838666,252.4590627921803,494.595257817989,255.38522186622424,482.84137122636486C258.3113809402682,471.0874846347407,274.1556904701341,473.04374231737035,290,475" marker-end="url(#modelerCanvasArrow)" style="fill: none; stroke: black; stroke-width: 3;"/><title class="relationshipTypeTooltip"/><text class="displayText" x="256.88115653851236" y="507.357884438649" text-anchor="middle" baseline-shift="30%" alignment-baseline="alphabetic" font-family="Roboto, sans-serif" font-size="14" transform="rotate(-112.50000000000003 256.88115653851236 507.357884438649)" style="fill: black;">SIMILAR_TO</text></g><g id="relationshiptype_Rel9" class="relationshipType"><path class="relationshipLine arrow" d="M600,525C600,546,600,567,600,588C600,609,600,630,600,651" marker-end="url(#modelerCanvasArrow)" style="fill: none; stroke: black; stroke-width: 3;"/><title class="relationshipTypeTooltip"/><text class="displayText" x="600" y="590" text-anchor="middle" baseline-shift="30%" alignment-baseline="alphabetic" font-family="Roboto, sans-serif" font-size="14" transform="rotate(90 600 590)" style="fill: black;">HAS_BEDROOM</text></g><g id="relationshiptype_Rel5" class="relationshipType"><path class="relationshipLine arrow" d="M645,467.5C716,442.5,787,417.5,858,417.5C929,417.5,1000,442.5,1071,467.5" marker-end="url(#modelerCanvasArrow)" style="fill: none; stroke: black; stroke-width: 3;"/><title class="relationshipTypeTooltip"/><text class="displayText" x="860" y="417.5" text-anchor="middle" baseline-shift="30%" alignment-baseline="alphabetic" font-family="Roboto, sans-serif" font-size="14" transform="rotate(0 860 417.5)" style="fill: black;">HAS_DINING_ROOM</text></g><g id="relationshiptype_Rel4" class="relationshipType"><path class="relationshipLine arrow" d="M645,492.5C716,517.5,787,542.5,858,542.5C929,542.5,1000,517.5,1071,492.5" marker-end="url(#modelerCanvasArrow)" style="fill: none; stroke: black; stroke-width: 3;"/><title class="relationshipTypeTooltip"/><text class="displayText" x="860" y="542.5" text-anchor="middle" baseline-shift="30%" alignment-baseline="alphabetic" font-family="Roboto, sans-serif" font-size="14" transform="rotate(0 860 542.5)" style="fill: black;">HAS_BEDROOM</text></g><g class="grid"/><g id="relationshiptype_Rel3" class="relationshipType"><path class="relationshipLine arrow" d="M645,473.75C716,461.25,787,448.75,858,448.75C929,448.75,1000,461.25,1071,473.75" marker-end="url(#modelerCanvasArrow)" style="fill: none; stroke: black; stroke-width: 3;"/><title class="relationshipTypeTooltip"/><text class="displayText" x="860" y="448.75" text-anchor="middle" baseline-shift="30%" alignment-baseline="alphabetic" font-family="Roboto, sans-serif" font-size="14" transform="rotate(0 860 448.75)" style="fill: black;">HAS_KITCHEN</text></g><g id="relationshiptype_Rel1" class="relationshipType"><path class="relationshipLine arrow" d="M645,486.25C716,498.75,787,511.25,858,511.25C929,511.25,1000,498.75,1071,486.25" style="fill: none; stroke: black; stroke-width: 3;" marker-end="url(#modelerCanvasArrow)"/><title class="relationshipTypeTooltip">ACTED_IN</title><text class="displayText" x="860" y="511.25" text-anchor="middle" baseline-shift="30%" alignment-baseline="alphabetic" font-family="Roboto, sans-serif" font-size="14" style="fill: black;" transform="rotate(0 860 511.25)">HAS_HOUSE_VIEW</text></g><g id="relationshiptype_Rel6" class="relationshipType"><path class="relationshipLine arrow" d="M645,498.75C716,536.25,787,573.75,858,573.75C929,573.75,1000,536.25,1071,498.75" marker-end="url(#modelerCanvasArrow)" style="fill: none; stroke: black; stroke-width: 3;"/><title class="relationshipTypeTooltip"/><text class="displayText" x="860" y="573.75" text-anchor="middle" baseline-shift="30%" alignment-baseline="alphabetic" font-family="Roboto, sans-serif" font-size="14" transform="rotate(0 860 573.75)" style="fill: black;">HAS_LIVING_ROOM</text></g><g id="relationshiptype_Rel7" class="relationshipType"><path class="relationshipLine arrow" d="M600,435C600,414,600,393,600,372C600,351,600,330,600,309" marker-end="url(#modelerCanvasArrow)" style="fill: none; stroke: black; stroke-width: 3;"/><title class="relationshipTypeTooltip"/><text class="displayText" x="600" y="370" text-anchor="middle" baseline-shift="30%" alignment-baseline="alphabetic" font-family="Roboto, sans-serif" font-size="14" transform="rotate(-90 600 370)" style="fill: black;">HAS_KITCHEN</text></g><g id="relationshiptype_Rel8" class="relationshipType"><path class="relationshipLine arrow" d="M564.8609035750636,451.8887228600509C543.7611815896711,435.0089452717368,522.6614596042787,418.12916768342285,501.561737618886,401.2493900951089C480.4620156334934,384.3696125067949,459.36229364810094,367.4898349184808,438.26257166270847,350.6100573301668" marker-end="url(#modelerCanvasArrow)" style="fill: none; stroke: black; stroke-width: 3;"/><title class="relationshipTypeTooltip"/><text class="displayText" x="500" y="400" text-anchor="middle" baseline-shift="30%" alignment-baseline="alphabetic" font-family="Roboto, sans-serif" font-size="14" transform="rotate(38.65980825409008 500 400)" style="fill: black;">HAS_LIVING_ROOM</text></g><g id="relationshiptype_Rel10" class="relationshipType"><path class="relationshipLine arrow" d="M555,480C527.3333333333334,480,499.6666666666667,480,472,480C444.3333333333333,480,416.66666666666663,480,389,480" marker-end="url(#modelerCanvasArrow)" style="fill: none; stroke: black; stroke-width: 3;"/><title class="relationshipTypeTooltip"/><text class="displayText" x="470" y="480" text-anchor="middle" baseline-shift="30%" alignment-baseline="alphabetic" font-family="Roboto, sans-serif" font-size="14" transform="rotate(0 470 480)" style="fill: black;">HAS_DINING_ROOM</text></g><g id="relationshiptype_Rel12" class="relationshipType"><path class="relationshipLine arrow" d="M566.7157287525381,723.2842712474619C555.2915010202709,737.3639540148894,543.8672732880036,751.4436367823168,533.159163730981,745.7514627330917C522.4510541739585,740.0592886838665,512.4590627921804,714.5952578179889,515.3852218662242,702.8413712263649C518.3113809402681,691.0874846347409,534.155690470134,693.0437423173705,550,695" marker-end="url(#modelerCanvasArrow)" style="fill: none; stroke: black; stroke-width: 3;"/><title class="relationshipTypeTooltip"/><text class="displayText" x="516.8811565385123" y="727.357884438649" text-anchor="middle" baseline-shift="30%" alignment-baseline="alphabetic" font-family="Roboto, sans-serif" font-size="14" transform="rotate(-112.49999999999977 516.8811565385123 727.357884438649)" style="fill: black;">SIMILAR_TO</text></g><g id="relationshiptype_Rel14" class="relationshipType"><path class="relationshipLine arrow" d="M366.7157287525381,343.2842712474619C355.2915010202709,357.3639540148894,343.86727328800373,371.4436367823168,333.15916373098105,365.75146273309167C322.45105417395837,360.05928868386655,312.4590627921803,334.5952578179889,315.38522186622424,322.84137122636486C318.3113809402682,311.0874846347408,334.1556904701341,313.0437423173704,350,315" marker-end="url(#modelerCanvasArrow)" style="fill: none; stroke: black; stroke-width: 3;"/><title class="relationshipTypeTooltip"/><text class="displayText" x="316.88115653851236" y="347.357884438649" text-anchor="middle" baseline-shift="30%" alignment-baseline="alphabetic" font-family="Roboto, sans-serif" font-size="14" transform="rotate(-112.50000000000003 316.88115653851236 347.357884438649)" style="fill: black;">SIMILAR_TO</text></g><g id="relationshiptype_Rel15" class="relationshipType"><path class="relationshipLine arrow" d="M566.7157287525381,283.2842712474619C555.2915010202709,297.3639540148894,543.8672732880036,311.4436367823168,533.159163730981,305.75146273309167C522.4510541739585,300.05928868386655,512.4590627921804,274.5952578179889,515.3852218662242,262.84137122636486C518.3113809402681,251.08748463474083,534.155690470134,253.0437423173704,550,255" marker-end="url(#modelerCanvasArrow)" style="fill: none; stroke: black; stroke-width: 3;"/><title class="relationshipTypeTooltip"/><text class="displayText" x="516.8811565385123" y="287.357884438649" text-anchor="middle" baseline-shift="30%" alignment-baseline="alphabetic" font-family="Roboto, sans-serif" font-size="14" transform="rotate(-112.49999999999977 516.8811565385123 287.357884438649)" style="fill: black;">SIMILAR_TO</text></g><g id="relationshiptype_Rel17" class="relationshipType"><path class="relationshipLine arrow" d="M366.7157287525381,663.2842712474619C355.2915010202709,677.3639540148894,343.86727328800373,691.4436367823168,333.15916373098105,685.7514627330917C322.45105417395837,680.0592886838665,312.4590627921803,654.5952578179889,315.38522186622424,642.8413712263649C318.3113809402682,631.0874846347409,334.1556904701341,633.0437423173705,350,635" marker-end="url(#modelerCanvasArrow)" style="fill: none; stroke: black; stroke-width: 3;"/><title class="relationshipTypeTooltip"/><text class="displayText" x="316.88115653851236" y="667.357884438649" text-anchor="middle" baseline-shift="30%" alignment-baseline="alphabetic" font-family="Roboto, sans-serif" font-size="14" transform="rotate(-112.50000000000003 316.88115653851236 667.357884438649)" style="fill: black;">SIMILAR_TO</text></g><g id="relationshiptype_Rel16" class="relationshipType"><path class="relationshipLine arrow" d="M564.8609035750636,508.1112771399491C543.7611815896711,524.9910547282632,522.6614596042787,541.8708323165771,501.561737618886,558.7506099048911C480.4620156334934,575.6303874932051,459.36229364810094,592.5101650815192,438.26257166270847,609.3899426698332" marker-end="url(#modelerCanvasArrow)" style="fill: none; stroke: black; stroke-width: 3;"/><title class="relationshipTypeTooltip"/><text class="displayText" x="500" y="560" text-anchor="middle" baseline-shift="30%" alignment-baseline="alphabetic" font-family="Roboto, sans-serif" font-size="14" transform="rotate(-38.65980825409008 500 560)" style="fill: black;">HAS_HOUSE_VIEW</text></g><g id="relationshiptype_Rel18" class="relationshipType"><path class="relationshipLine arrow" d="M636.2882248135068,453.3886351367617C673.6545465451006,425.98666586692616,711.0208682766946,398.5846965970906,748.3871900082886,371.18272732725507C785.7535117398826,343.7807580574195,823.1198334714766,316.37878878758397,860.4861552030704,288.97681951774837" marker-end="url(#modelerCanvasArrow)" style="fill: none; stroke: black; stroke-width: 3;"/><title class="relationshipTypeTooltip"/><text class="displayText" x="750" y="370" text-anchor="middle" baseline-shift="30%" alignment-baseline="alphabetic" font-family="Roboto, sans-serif" font-size="14" transform="rotate(-36.25383773744479 750 370)" style="fill: black;">HAS_POSTAL_CODE</text></g><g id="relationshiptype_Rel19" class="relationshipType"><path class="relationshipLine arrow" d="M945,260C962.6666666666667,260,980.3333333333334,260,998,260C1015.6666666666666,260,1033.3333333333333,260,1051,260" marker-end="url(#modelerCanvasArrow)" style="fill: none; stroke: black; stroke-width: 3;"/><title class="relationshipTypeTooltip"/><text class="displayText" x="1000" y="260" text-anchor="middle" baseline-shift="30%" alignment-baseline="alphabetic" font-family="Roboto, sans-serif" font-size="14" transform="rotate(0 1000 260)" style="fill: black;">PART_OF</text></g><g id="nodelabel_Node17" class="nodeLabel"><circle class="hoverCircle" cy="260" cx="900" r="60" style="opacity: 0; fill: lightgray;"/><circle class="displayCircle" cy="260" cx="900" r="40" style="fill: rgb(0, 0, 0); stroke: black; stroke-width: 4;"/><text class="displayText" x="900" y="260" pointer-events="none" text-anchor="middle" alignment-baseline="central" font-family="Roboto, sans-serif" font-size="14" style="fill: white;"><tspan x="900" y="260" dy="0.00em">Postal</tspan><tspan x="900" y="260" dy="1.10em">Code</tspan></text></g><g id="nodelabel_Node18" class="nodeLabel"><circle class="hoverCircle" cy="260" cx="1100" r="60" style="opacity: 0; fill: lightgray;"/><circle class="displayCircle" cy="260" cx="1100" r="40" style="fill: rgb(0, 0, 0); stroke: black; stroke-width: 4;"/><text class="displayText" x="1100" y="260" pointer-events="none" text-anchor="middle" alignment-baseline="central" font-family="Roboto, sans-serif" font-size="14" style="fill: white;"><tspan x="1100" y="260" dy="0.34em">State</tspan></text></g><g id="nodelabel_Node6" class="nodeLabel"><circle class="hoverCircle" cy="260" cx="600" r="60" style="opacity: 0; fill: lightgray;"/><circle class="displayCircle" cy="260" cx="600" r="40" style="fill: rgb(255, 87, 34); stroke: rgb(162, 0, 0); stroke-width: 4;"/><text class="displayText" x="600" y="260" pointer-events="none" text-anchor="middle" alignment-baseline="central" font-family="Roboto, sans-serif" font-size="14" style="fill: white;"><tspan x="600" y="260" dy="0.34em">Kitchen</tspan></text></g><g id="nodelabel_Node0" class="nodeLabel"><circle class="hoverCircle" cy="480" cx="600" r="60" style="opacity: 0; fill: lightgray;"/><circle class="displayCircle" cy="480" cx="600" r="40" style="fill: rgb(96, 125, 139); stroke: rgb(27, 56, 68); stroke-width: 4;"/><text class="displayText" x="600" y="480" pointer-events="none" text-anchor="middle" alignment-baseline="central" font-family="Roboto, sans-serif" font-size="14" style="fill: white;"><tspan x="600" y="480" dy="0.34em">Listing</tspan></text></g><g id="nodelabel_Node7" class="nodeLabel"><circle class="hoverCircle" cy="320" cx="400" r="60" style="opacity: 0; fill: lightgray;"/><circle class="displayCircle" cy="320" cx="400" r="40" style="fill: rgb(205, 220, 57); stroke: rgb(122, 142, 0); stroke-width: 4;"/><text class="displayText" x="400" y="320" pointer-events="none" text-anchor="middle" alignment-baseline="central" font-family="Roboto, sans-serif" font-size="14" style="fill: black;"><tspan x="400" y="320" dy="0.00em">Living</tspan><tspan x="400" y="320" dy="1.10em">Room</tspan></text></g><g id="nodelabel_Node9" class="nodeLabel"><circle class="hoverCircle" cy="480" cx="340" r="60" style="opacity: 0; fill: lightgray;"/><circle class="displayCircle" cy="480" cx="340" r="40" style="fill: rgb(0, 150, 136); stroke: rgb(0, 77, 66); stroke-width: 4;"/><text class="displayText" x="340" y="480" pointer-events="none" text-anchor="middle" alignment-baseline="central" font-family="Roboto, sans-serif" font-size="14" style="fill: white;"><tspan x="340" y="480" dy="0.00em">Dining</tspan><tspan x="340" y="480" dy="1.10em">Room</tspan></text></g><g id="nodelabel_Node15" class="nodeLabel"><circle class="hoverCircle" cy="640" cx="400" r="60" style="opacity: 0; fill: lightgray;"/><circle class="displayCircle" cy="640" cx="400" r="40" style="fill: rgb(3, 169, 244); stroke: rgb(0, 96, 163); stroke-width: 4;"/><text class="displayText" x="400" y="640" pointer-events="none" text-anchor="middle" alignment-baseline="central" font-family="Roboto, sans-serif" font-size="14" style="fill: white;"><tspan x="400" y="640" dy="0.34em">HouseView</tspan></text></g><g id="nodelabel_Node8" class="nodeLabel"><circle class="hoverCircle" cy="700" cx="600" r="60" style="opacity: 0; fill: lightgray;"/><circle class="displayCircle" cy="700" cx="600" r="40" style="fill: rgb(233, 30, 99); stroke: rgb(142, 0, 35); stroke-width: 4;"/><text class="displayText" x="600" y="700" pointer-events="none" text-anchor="middle" alignment-baseline="central" font-family="Roboto, sans-serif" font-size="14" style="fill: white;"><tspan x="600" y="700" dy="0.34em">Bedroom</tspan></text></g><g id="nodelabel_Node1" class="nodeLabel"><circle class="hoverCircle" cy="480" cx="1120" r="60" style="opacity: 0; fill: lightgray;"/><circle class="displayCircle" cy="480" cx="1120" r="40" style="fill: rgb(255, 235, 59); stroke: rgb(168, 156, 0); stroke-width: 4;"/><text class="displayText" x="1120" y="480" pointer-events="none" text-anchor="middle" alignment-baseline="central" font-family="Roboto, sans-serif" font-size="14" style="fill: black;"><tspan x="1120" y="480" dy="0.34em">Image</tspan></text></g></g><text pointer-events="none" font-family="Roboto, sans-serif" font-size="14"><tspan id="modelerCanvas_textDimensionHelper"/></text></svg>